<?xml version="1.0" encoding="UTF-8" standalone="no"?>
<!DOCTYPE svg PUBLIC "-//W3C//DTD SVG 1.1//EN"
 "http://www.w3.org/Graphics/SVG/1.1/DTD/svg11.dtd">
<!-- Generated by graphviz version 2.42.4 (0)
 -->
<!-- Title: architecture_map Pages: 1 -->
<svg width="522pt" height="485pt"
 viewBox="0.00 0.00 521.50 485.00" xmlns="http://www.w3.org/2000/svg" xmlns:xlink="http://www.w3.org/1999/xlink">
<g id="graph0" class="graph" transform="scale(1 1) rotate(0) translate(4 481)">
<title>architecture_map</title>
<polygon fill="white" stroke="transparent" points="-4,4 -4,-481 517.5,-481 517.5,4 -4,4"/>
<!-- github -->
<g id="node1" class="node">
<title>github</title>
<polygon fill="none" stroke="black" points="237,-477 85,-477 85,-441 237,-441 237,-477"/>
<text text-anchor="middle" x="161" y="-455.3" font-family="Helvetica,sans-Serif" font-size="14.00">GitHub Issues / PRs</text>
</g>
<!-- bridge -->
<g id="node2" class="node">
<title>bridge</title>
<polygon fill="none" stroke="black" points="230.5,-390 91.5,-390 91.5,-352 230.5,-352 230.5,-390"/>
<text text-anchor="middle" x="161" y="-374.8" font-family="Helvetica,sans-Serif" font-size="14.00">Bridge</text>
<text text-anchor="middle" x="161" y="-359.8" font-family="Helvetica,sans-Serif" font-size="14.00">(github webhook)</text>
</g>
<!-- github&#45;&gt;bridge -->
<g id="edge1" class="edge">
<title>github&#45;&gt;bridge</title>
<path fill="none" stroke="black" d="M161,-440.6C161,-429.06 161,-413.65 161,-400.36"/>
<polygon fill="black" stroke="black" points="164.5,-400.27 161,-390.27 157.5,-400.27 164.5,-400.27"/>
<text text-anchor="middle" x="193" y="-411.8" font-family="Times,serif" font-size="14.00">webhook</text>
</g>
<!-- platform -->
<g id="node3" class="node">
<title>platform</title>
<polygon fill="none" stroke="black" points="346.5,-301 155.5,-301 155.5,-263 346.5,-263 346.5,-301"/>
<text text-anchor="middle" x="251" y="-285.8" font-family="Helvetica,sans-Serif" font-size="14.00">amplifier&#45;resolve</text>
<text text-anchor="middle" x="251" y="-270.8" font-family="Helvetica,sans-Serif" font-size="14.00">FastAPI platform daemon</text>
</g>
<!-- bridge&#45;&gt;platform -->
<g id="edge2" class="edge">
<title>bridge&#45;&gt;platform</title>
<path fill="none" stroke="black" d="M173.98,-351.56C181.57,-341.41 191.66,-328.9 202,-319 206.25,-314.93 210.97,-310.93 215.76,-307.15"/>
<polygon fill="black" stroke="black" points="217.95,-309.88 223.8,-301.05 213.72,-304.31 217.95,-309.88"/>
<text text-anchor="middle" x="260.5" y="-322.8" font-family="Times,serif" font-size="14.00">POST /instances</text>
</g>
<!-- dotgraph -->
<g id="node4" class="node">
<title>dotgraph</title>
<polygon fill="none" stroke="black" points="150.5,-212 1.5,-212 1.5,-176 150.5,-176 150.5,-212"/>
<text text-anchor="middle" x="76" y="-190.3" font-family="Helvetica,sans-Serif" font-size="14.00">resolver: dot&#45;graph</text>
</g>
<!-- platform&#45;&gt;dotgraph -->
<g id="edge3" class="edge">
<title>platform&#45;&gt;dotgraph</title>
<path fill="none" stroke="black" d="M167.6,-262.95C153.55,-258.2 139.48,-252.3 127,-245 115.63,-238.35 104.91,-228.61 96.26,-219.49"/>
<polygon fill="black" stroke="black" points="98.83,-217.1 89.52,-212.05 93.64,-221.81 98.83,-217.1"/>
<text text-anchor="middle" x="187" y="-233.8" font-family="Times,serif" font-size="14.00">launch container</text>
</g>
<!-- orchestrator -->
<g id="node5" class="node">
<title>orchestrator</title>
<polygon fill="none" stroke="black" points="333.5,-212 168.5,-212 168.5,-176 333.5,-176 333.5,-212"/>
<text text-anchor="middle" x="251" y="-190.3" font-family="Helvetica,sans-Serif" font-size="14.00">resolver: orchestrator</text>
</g>
<!-- platform&#45;&gt;orchestrator -->
<g id="edge4" class="edge">
<title>platform&#45;&gt;orchestrator</title>
<path fill="none" stroke="black" d="M251,-262.76C251,-250.93 251,-235.32 251,-222.05"/>
<polygon fill="black" stroke="black" points="254.5,-222.04 251,-212.04 247.5,-222.04 254.5,-222.04"/>
</g>
<!-- understudy -->
<g id="node6" class="node">
<title>understudy</title>
<polygon fill="none" stroke="black" points="512.5,-212 351.5,-212 351.5,-176 512.5,-176 512.5,-212"/>
<text text-anchor="middle" x="432" y="-190.3" font-family="Helvetica,sans-Serif" font-size="14.00">resolver: understudy</text>
</g>
<!-- platform&#45;&gt;understudy -->
<g id="edge5" class="edge">
<title>platform&#45;&gt;understudy</title>
<path fill="none" stroke="black" d="M288.94,-262.97C317.5,-249.4 356.75,-230.76 386.91,-216.42"/>
<polygon fill="black" stroke="black" points="388.43,-219.58 395.96,-212.13 385.42,-213.26 388.43,-219.58"/>
</g>
<!-- vp_dg -->
<g id="node7" class="node">
<title>vp_dg</title>
<polygon fill="none" stroke="black" points="150,-125 0,-125 0,-89 150,-89 150,-125"/>
<text text-anchor="middle" x="75" y="-103.3" font-family="Helvetica,sans-Serif" font-size="14.00">dot&#45;graph viewport</text>
</g>
<!-- dotgraph&#45;&gt;vp_dg -->
<g id="edge6" class="edge">
<title>dotgraph&#45;&gt;vp_dg</title>
<path fill="none" stroke="black" d="M75.8,-175.8C75.66,-164.16 75.48,-148.55 75.32,-135.24"/>
<polygon fill="black" stroke="black" points="78.82,-135.13 75.2,-125.18 71.82,-135.22 78.82,-135.13"/>
<text text-anchor="middle" x="124.5" y="-146.8" font-family="Times,serif" font-size="14.00">events / state</text>
</g>
<!-- vp_or -->
<g id="node8" class="node">
<title>vp_or</title>
<polygon fill="none" stroke="black" points="334,-125 168,-125 168,-89 334,-89 334,-125"/>
<text text-anchor="middle" x="251" y="-103.3" font-family="Helvetica,sans-Serif" font-size="14.00">orchestrator viewport</text>
</g>
<!-- orchestrator&#45;&gt;vp_or -->
<g id="edge7" class="edge">
<title>orchestrator&#45;&gt;vp_or</title>
<path fill="none" stroke="black" d="M251,-175.8C251,-164.16 251,-148.55 251,-135.24"/>
<polygon fill="black" stroke="black" points="254.5,-135.18 251,-125.18 247.5,-135.18 254.5,-135.18"/>
</g>
<!-- vp_un -->
<g id="node9" class="node">
<title>vp_un</title>
<polygon fill="none" stroke="black" points="513.5,-125 352.5,-125 352.5,-89 513.5,-89 513.5,-125"/>
<text text-anchor="middle" x="433" y="-103.3" font-family="Helvetica,sans-Serif" font-size="14.00">understudy viewport</text>
</g>
<!-- understudy&#45;&gt;vp_un -->
<g id="edge8" class="edge">
<title>understudy&#45;&gt;vp_un</title>
<path fill="none" stroke="black" d="M432.2,-175.8C432.34,-164.16 432.52,-148.55 432.68,-135.24"/>
<polygon fill="black" stroke="black" points="436.18,-135.22 432.8,-125.18 429.18,-135.13 436.18,-135.22"/>
</g>
<!-- spa -->
<g id="node10" class="node">
<title>spa</title>
<polygon fill="none" stroke="black" points="332.5,-38 169.5,-38 169.5,0 332.5,0 332.5,-38"/>
<text text-anchor="middle" x="251" y="-22.8" font-family="Helvetica,sans-Serif" font-size="14.00">amplifier&#45;app&#45;resolve</text>
<text text-anchor="middle" x="251" y="-7.8" font-family="Helvetica,sans-Serif" font-size="14.00">React SPA shell</text>
</g>
<!-- vp_dg&#45;&gt;spa -->
<g id="edge9" class="edge">
<title>vp_dg&#45;&gt;spa</title>
<path fill="none" stroke="black" d="M104.88,-88.85C122.7,-78.84 145.9,-66.23 167,-56 176.73,-51.28 187.23,-46.53 197.4,-42.09"/>
<polygon fill="black" stroke="black" points="198.83,-45.29 206.62,-38.11 196.05,-38.86 198.83,-45.29"/>
<text text-anchor="middle" x="207" y="-59.8" font-family="Times,serif" font-size="14.00">viewport.js</text>
</g>
<!-- vp_or&#45;&gt;spa -->
<g id="edge10" class="edge">
<title>vp_or&#45;&gt;spa</title>
<path fill="none" stroke="black" d="M251,-88.6C251,-77.06 251,-61.65 251,-48.36"/>
<polygon fill="black" stroke="black" points="254.5,-48.27 251,-38.27 247.5,-48.27 254.5,-48.27"/>
</g>
<!-- vp_un&#45;&gt;spa -->
<g id="edge11" class="edge">
<title>vp_un&#45;&gt;spa</title>
<path fill="none" stroke="black" d="M396.61,-88.8C368.4,-75.48 329.1,-56.9 298.43,-42.41"/>
<polygon fill="black" stroke="black" points="299.75,-39.16 289.21,-38.06 296.76,-45.49 299.75,-39.16"/>
</g>
<!-- provisioning -->
<g id="node11" class="node">
<title>provisioning</title>
<polygon fill="none" stroke="black" points="433.5,-390 248.5,-390 248.5,-352 433.5,-352 433.5,-390"/>
<text text-anchor="middle" x="341" y="-374.8" font-family="Helvetica,sans-Serif" font-size="14.00">amplifier&#45;bundle&#45;resolve</text>
<text text-anchor="middle" x="341" y="-359.8" font-family="Helvetica,sans-Serif" font-size="14.00">provisioning / DTU</text>
</g>
<!-- provisioning&#45;&gt;platform -->
<g id="edge12" class="edge">
<title>provisioning&#45;&gt;platform</title>
<path fill="none" stroke="black" stroke-dasharray="5,2" d="M336.44,-351.79C333.04,-341.22 327.5,-328.21 319,-319 314.72,-314.36 309.7,-310.21 304.36,-306.52"/>
<polygon fill="black" stroke="black" points="306.1,-303.48 295.78,-301.11 302.37,-309.4 306.1,-303.48"/>
<text text-anchor="middle" x="364" y="-322.8" font-family="Times,serif" font-size="14.00">stands up</text>
</g>
</g>
</svg>
