<?xml version="1.0" encoding="UTF-8" standalone="no"?>
<!DOCTYPE svg PUBLIC "-//W3C//DTD SVG 1.1//EN"
 "http://www.w3.org/Graphics/SVG/1.1/DTD/svg11.dtd">
<!-- Generated by graphviz version 2.42.4 (0)
 -->
<!-- Title: lifecycle_phases Pages: 1 -->
<svg width="639pt" height="46pt"
 viewBox="0.00 0.00 639.00 46.00" xmlns="http://www.w3.org/2000/svg" xmlns:xlink="http://www.w3.org/1999/xlink">
<g id="graph0" class="graph" transform="scale(1 1) rotate(0) translate(4 42)">
<title>lifecycle_phases</title>
<polygon fill="white" stroke="transparent" points="-4,4 -4,-42 635,-42 635,4 -4,4"/>
<!-- intake -->
<g id="node1" class="node">
<title>intake</title>
<polygon fill="none" stroke="black" points="112,-38 0,-38 0,0 112,0 112,-38"/>
<text text-anchor="middle" x="56" y="-22.8" font-family="Helvetica,sans-Serif" font-size="14.00">Intake</text>
<text text-anchor="middle" x="56" y="-7.8" font-family="Helvetica,sans-Serif" font-size="14.00">validate input</text>
</g>
<!-- provision -->
<g id="node2" class="node">
<title>provision</title>
<polygon fill="none" stroke="black" points="297,-38 148,-38 148,0 297,0 297,-38"/>
<text text-anchor="middle" x="222.5" y="-22.8" font-family="Helvetica,sans-Serif" font-size="14.00">Provision</text>
<text text-anchor="middle" x="222.5" y="-7.8" font-family="Helvetica,sans-Serif" font-size="14.00">container + launch</text>
</g>
<!-- intake&#45;&gt;provision -->
<g id="edge1" class="edge">
<title>intake&#45;&gt;provision</title>
<path fill="none" stroke="black" d="M112.23,-19C120.42,-19 129,-19 137.61,-19"/>
<polygon fill="black" stroke="black" points="137.71,-22.5 147.71,-19 137.71,-15.5 137.71,-22.5"/>
</g>
<!-- execute -->
<g id="node3" class="node">
<title>execute</title>
<polygon fill="none" stroke="black" points="441,-38 333,-38 333,0 441,0 441,-38"/>
<text text-anchor="middle" x="387" y="-22.8" font-family="Helvetica,sans-Serif" font-size="14.00">Execute</text>
<text text-anchor="middle" x="387" y="-7.8" font-family="Helvetica,sans-Serif" font-size="14.00">resolver runs</text>
</g>
<!-- provision&#45;&gt;execute -->
<g id="edge2" class="edge">
<title>provision&#45;&gt;execute</title>
<path fill="none" stroke="black" d="M297.14,-19C305.62,-19 314.21,-19 322.54,-19"/>
<polygon fill="black" stroke="black" points="322.54,-22.5 332.54,-19 322.54,-15.5 322.54,-22.5"/>
</g>
<!-- finalize -->
<g id="node4" class="node">
<title>finalize</title>
<polygon fill="none" stroke="black" points="631,-38 477,-38 477,0 631,0 631,-38"/>
<text text-anchor="middle" x="554" y="-22.8" font-family="Helvetica,sans-Serif" font-size="14.00">Finalize</text>
<text text-anchor="middle" x="554" y="-7.8" font-family="Helvetica,sans-Serif" font-size="14.00">reconcile + cleanup</text>
</g>
<!-- execute&#45;&gt;finalize -->
<g id="edge3" class="edge">
<title>execute&#45;&gt;finalize</title>
<path fill="none" stroke="black" d="M441.12,-19C449.31,-19 457.95,-19 466.64,-19"/>
<polygon fill="black" stroke="black" points="466.85,-22.5 476.85,-19 466.85,-15.5 466.85,-22.5"/>
</g>
</g>
</svg>
