<?xml version="1.0" encoding="UTF-8" standalone="no"?>
<!DOCTYPE svg PUBLIC "-//W3C//DTD SVG 1.1//EN"
 "http://www.w3.org/Graphics/SVG/1.1/DTD/svg11.dtd">
<!-- Generated by graphviz version 2.42.4 (0)
 -->
<!-- Title: three_concern Pages: 1 -->
<svg width="180pt" height="528pt"
 viewBox="0.00 0.00 179.50 528.00" xmlns="http://www.w3.org/2000/svg" xmlns:xlink="http://www.w3.org/1999/xlink">
<g id="graph0" class="graph" transform="scale(1 1) rotate(0) translate(4 524)">
<title>three_concern</title>
<polygon fill="white" stroke="transparent" points="-4,4 -4,-524 175.5,-524 175.5,4 -4,4"/>
<!-- issue -->
<g id="node1" class="node">
<title>issue</title>
<polygon fill="none" stroke="black" points="135,-520 26,-520 26,-484 135,-484 135,-520"/>
<text text-anchor="middle" x="80.5" y="-498.3" font-family="Helvetica,sans-Serif" font-size="14.00">issue.opened</text>
</g>
<!-- triage -->
<g id="node2" class="node">
<title>triage</title>
<polygon fill="none" stroke="black" points="138.5,-433 22.5,-433 22.5,-397 138.5,-397 138.5,-433"/>
<text text-anchor="middle" x="80.5" y="-411.3" font-family="Helvetica,sans-Serif" font-size="14.00">triage pipeline</text>
</g>
<!-- issue&#45;&gt;triage -->
<g id="edge1" class="edge">
<title>issue&#45;&gt;triage</title>
<path fill="none" stroke="black" d="M80.5,-483.8C80.5,-472.16 80.5,-456.55 80.5,-443.24"/>
<polygon fill="black" stroke="black" points="84,-443.18 80.5,-433.18 77,-443.18 84,-443.18"/>
<text text-anchor="middle" x="109" y="-454.8" font-family="Times,serif" font-size="14.00">1 triage</text>
</g>
<!-- cmd -->
<g id="node3" class="node">
<title>cmd</title>
<polygon fill="none" stroke="black" points="147.5,-360 13.5,-360 13.5,-322 147.5,-322 147.5,-360"/>
<text text-anchor="middle" x="80.5" y="-344.8" font-family="Helvetica,sans-Serif" font-size="14.00">/resolve</text>
<text text-anchor="middle" x="80.5" y="-329.8" font-family="Helvetica,sans-Serif" font-size="14.00">new_instance(...)</text>
</g>
<!-- triage&#45;&gt;cmd -->
<g id="edge2" class="edge">
<title>triage&#45;&gt;cmd</title>
<path fill="none" stroke="black" d="M80.5,-396.94C80.5,-388.99 80.5,-379.31 80.5,-370.31"/>
<polygon fill="black" stroke="black" points="84,-370.2 80.5,-360.2 77,-370.2 84,-370.2"/>
</g>
<!-- resolve -->
<g id="node4" class="node">
<title>resolve</title>
<polygon fill="none" stroke="black" points="151.5,-271 9.5,-271 9.5,-233 151.5,-233 151.5,-271"/>
<text text-anchor="middle" x="80.5" y="-255.8" font-family="Helvetica,sans-Serif" font-size="14.00">Resolve API</text>
<text text-anchor="middle" x="80.5" y="-240.8" font-family="Helvetica,sans-Serif" font-size="14.00">resolver container</text>
</g>
<!-- cmd&#45;&gt;resolve -->
<g id="edge3" class="edge">
<title>cmd&#45;&gt;resolve</title>
<path fill="none" stroke="black" d="M80.5,-321.97C80.5,-310.19 80.5,-294.56 80.5,-281.16"/>
<polygon fill="black" stroke="black" points="84,-281 80.5,-271 77,-281 84,-281"/>
<text text-anchor="middle" x="126" y="-292.8" font-family="Times,serif" font-size="14.00">2 implement</text>
</g>
<!-- pr -->
<g id="node5" class="node">
<title>pr</title>
<polygon fill="none" stroke="black" points="126,-196 35,-196 35,-160 126,-160 126,-196"/>
<text text-anchor="middle" x="80.5" y="-174.3" font-family="Helvetica,sans-Serif" font-size="14.00">PR created</text>
</g>
<!-- resolve&#45;&gt;pr -->
<g id="edge4" class="edge">
<title>resolve&#45;&gt;pr</title>
<path fill="none" stroke="black" d="M80.5,-232.83C80.5,-224.89 80.5,-215.41 80.5,-206.63"/>
<polygon fill="black" stroke="black" points="84,-206.42 80.5,-196.42 77,-206.42 84,-206.42"/>
</g>
<!-- review -->
<g id="node6" class="node">
<title>review</title>
<polygon fill="none" stroke="black" points="141,-109 20,-109 20,-73 141,-73 141,-109"/>
<text text-anchor="middle" x="80.5" y="-87.3" font-family="Helvetica,sans-Serif" font-size="14.00">review pipeline</text>
</g>
<!-- pr&#45;&gt;review -->
<g id="edge5" class="edge">
<title>pr&#45;&gt;review</title>
<path fill="none" stroke="black" d="M80.5,-159.8C80.5,-148.16 80.5,-132.55 80.5,-119.24"/>
<polygon fill="black" stroke="black" points="84,-119.18 80.5,-109.18 77,-119.18 84,-119.18"/>
<text text-anchor="middle" x="111.5" y="-130.8" font-family="Times,serif" font-size="14.00">3 review</text>
</g>
<!-- comments -->
<g id="node7" class="node">
<title>comments</title>
<polygon fill="none" stroke="black" points="161,-36 0,-36 0,0 161,0 161,-36"/>
<text text-anchor="middle" x="80.5" y="-14.3" font-family="Helvetica,sans-Serif" font-size="14.00">PR review comments</text>
</g>
<!-- review&#45;&gt;comments -->
<g id="edge6" class="edge">
<title>review&#45;&gt;comments</title>
<path fill="none" stroke="black" d="M80.5,-72.81C80.5,-64.79 80.5,-55.05 80.5,-46.07"/>
<polygon fill="black" stroke="black" points="84,-46.03 80.5,-36.03 77,-46.03 84,-46.03"/>
</g>
</g>
</svg>
