<svg xmlns="http://www.w3.org/2000/svg" class="rdiagram" width="798" height="382" viewBox="-10 -10 798 382" preserveAspectRatio="xMidYMid meet" role="img">
<defs><filter id="nshadow" x="-20%" y="-20%" width="140%" height="150%"><feDropShadow dx="0" dy="1.6" stdDeviation="2.6" flood-color="#2a2622" flood-opacity="0.16"/></filter><marker id="arrow" viewBox="0 0 10 10" refX="8.5" refY="5" markerWidth="7.5" markerHeight="7.5" orient="auto-start-reverse"><path d="M0,0.6 L9,5 L0,9.4 L2.4,5 Z" fill="#6b6359"/></marker></defs>
<path d="M 80.4 48.6 C 88.3 62.2 100.7 79.4 116.5 89.0 C 139.3 102.9 196.0 113.6 249.9 121.1" fill="none" stroke="#6b6359" stroke-width="1.6" stroke-linecap="round" marker-end="url(#arrow)" opacity="0.85"/>
<rect x="126.5" y="76.2" width="97.0" height="16" rx="8" fill="#f7f3e9" stroke="#d9cfb8" stroke-width="1"/>
<text x="175.0" y="88.7" text-anchor="middle" font-family="'Inter','Helvetica Neue',Arial,sans-serif" font-size="10.5" fill="#6b6359">POST /instances</text>
<path d="M 233.6 48.6 C 233.4 61.4 235.3 77.8 244.5 89.0 C 248.1 93.4 252.2 97.4 256.6 101.0" fill="none" stroke="#6b6359" stroke-width="1.6" stroke-linecap="round" marker-end="url(#arrow)" opacity="0.85"/>
<rect x="254.5" y="76.2" width="97.0" height="16" rx="8" fill="#f7f3e9" stroke="#d9cfb8" stroke-width="1"/>
<text x="303.0" y="88.7" text-anchor="middle" font-family="'Inter','Helvetica Neue',Arial,sans-serif" font-size="10.5" fill="#6b6359">POST /instances</text>
<path d="M 363.0 48.8 C 364.0 62.2 365.4 80.4 366.6 96.6" fill="none" stroke="#6b6359" stroke-width="1.6" stroke-linecap="round" marker-end="url(#arrow)" opacity="0.85"/>
<path d="M 451.2 56.0 C 437.3 69.3 420.4 85.4 405.6 99.5" fill="none" stroke="#6b6359" stroke-width="1.6" stroke-linecap="round" marker-end="url(#arrow)" opacity="0.85"/>
<path d="M 426.9 163.0 C 457.8 177.6 495.5 195.4 525.4 209.4" fill="none" stroke="#6b6359" stroke-width="1.6" stroke-linecap="round" marker-end="url(#arrow)" opacity="0.85"/>
<rect x="500.0" y="183.2" width="103.0" height="16" rx="8" fill="#f7f3e9" stroke="#d9cfb8" stroke-width="1"/>
<text x="551.5" y="195.7" text-anchor="middle" font-family="'Inter','Helvetica Neue',Arial,sans-serif" font-size="10.5" fill="#6b6359">launch container</text>
<path d="M 313.2 163.0 C 282.9 177.6 245.9 195.4 216.6 209.4" fill="none" stroke="#6b6359" stroke-width="1.6" stroke-linecap="round" marker-end="url(#arrow)" opacity="0.85"/>
<path d="M 371.2 163.2 C 371.9 175.8 372.9 190.8 373.7 203.7" fill="none" stroke="#6b6359" stroke-width="1.6" stroke-linecap="round" marker-end="url(#arrow)" opacity="0.85"/>
<path d="M 505.7 255.1 C 452.6 269.8 379.2 290.1 320.8 306.3" fill="none" stroke="#6b6359" stroke-width="1.6" stroke-linecap="round" marker-end="url(#arrow)" opacity="0.85"/>
<rect x="435.5" y="275.2" width="91.0" height="16" rx="8" fill="#f7f3e9" stroke="#d9cfb8" stroke-width="1"/>
<text x="481.0" y="287.7" text-anchor="middle" font-family="'Inter','Helvetica Neue',Arial,sans-serif" font-size="10.5" fill="#6b6359">events / state</text>
<path d="M 178.2 255.2 C 185.3 267.2 194.6 282.8 203.0 296.9" fill="none" stroke="#6b6359" stroke-width="1.6" stroke-linecap="round" marker-end="url(#arrow)" opacity="0.85"/>
<path d="M 344.9 255.2 C 324.9 268.2 298.3 285.4 275.1 300.3" fill="none" stroke="#6b6359" stroke-width="1.6" stroke-linecap="round" marker-end="url(#arrow)" opacity="0.85"/>
<path d="M 138.2 312.5 C 108.4 300.8 78.0 282.7 60.5 255.0 C 22.0 194.0 43.9 104.3 59.3 58.4" fill="none" stroke="#6b6359" stroke-width="1.6" stroke-linecap="round" marker-end="url(#arrow)" opacity="0.85"/>
<rect x="45.0" y="183.2" width="61.0" height="16" rx="8" fill="#f7f3e9" stroke="#d9cfb8" stroke-width="1"/>
<text x="75.5" y="195.7" text-anchor="middle" font-family="'Inter','Helvetica Neue',Arial,sans-serif" font-size="10.5" fill="#6b6359">loaded by</text>
<path d="M 593.7 56.0 C 551.9 70.6 500.2 88.6 456.9 103.6" fill="none" stroke="#6b6359" stroke-width="1.6" stroke-linecap="round" stroke-dasharray="6 5" marker-end="url(#arrow)" opacity="0.85"/>
<rect x="543.0" y="76.2" width="61.0" height="16" rx="8" fill="#f7f3e9" stroke="#d9cfb8" stroke-width="1"/>
<text x="573.5" y="88.7" text-anchor="middle" font-family="'Inter','Helvetica Neue',Arial,sans-serif" font-size="10.5" fill="#6b6359">stands up</text>
<g filter="url(#nshadow)">
<rect x="0.0" y="7.5" width="141.0" height="41.0" rx="14.0" fill="#eaf1f4" stroke="#3f7d99" stroke-width="1.5"/>
</g>
<text x="70.5" y="31.9" text-anchor="middle" font-family="'Inter','Helvetica Neue',Arial,sans-serif" font-size="14.0" font-weight="700" fill="#1f5673">SPA (browser)</text>
<g filter="url(#nshadow)">
<rect x="167.0" y="7.5" width="137.0" height="41.0" rx="14.0" fill="#eaf1f4" stroke="#3f7d99" stroke-width="1.5"/>
</g>
<text x="235.5" y="31.9" text-anchor="middle" font-family="'Inter','Helvetica Neue',Arial,sans-serif" font-size="14.0" font-weight="700" fill="#1f5673">agent / script</text>
<g filter="url(#nshadow)">
<rect x="328.5" y="7.5" width="66.0" height="41.0" rx="14.0" fill="#eaf1f4" stroke="#3f7d99" stroke-width="1.5"/>
</g>
<text x="361.5" y="31.9" text-anchor="middle" font-family="'Inter','Helvetica Neue',Arial,sans-serif" font-size="14.0" font-weight="700" fill="#1f5673">CLI</text>
<g filter="url(#nshadow)">
<rect x="412.5" y="-0.0" width="134.0" height="56.0" rx="14.0" fill="#eaf1f4" stroke="#3f7d99" stroke-width="1.5"/>
</g>
<text x="479.5" y="23.7" text-anchor="middle" font-family="'Inter','Helvetica Neue',Arial,sans-serif" font-size="14.0" font-weight="700" fill="#1f5673">CI bridge</text>
<text x="479.5" y="40.2" text-anchor="middle" font-family="'Inter','Helvetica Neue',Arial,sans-serif" font-size="11.5" font-weight="500" fill="#6b6359">(e.g. GitHub)</text>
<g filter="url(#nshadow)">
<rect x="260.0" y="107.0" width="219.0" height="56.0" rx="14.0" fill="#f6e7d0" stroke="#b07a3f" stroke-width="1.5"/>
</g>
<text x="369.5" y="130.7" text-anchor="middle" font-family="'Inter','Helvetica Neue',Arial,sans-serif" font-size="14.0" font-weight="700" fill="#8a5a2b">amplifier-resolve</text>
<text x="369.5" y="147.2" text-anchor="middle" font-family="'Inter','Helvetica Neue',Arial,sans-serif" font-size="11.5" font-weight="500" fill="#6b6359">FastAPI platform daemon</text>
<g filter="url(#nshadow)">
<rect x="488.0" y="214.0" width="177.0" height="41.0" rx="14.0" fill="#f1ead8" stroke="#b89a63" stroke-width="1.5"/>
</g>
<text x="576.5" y="238.4" text-anchor="middle" font-family="'Inter','Helvetica Neue',Arial,sans-serif" font-size="14.0" font-weight="700" fill="#6f5a2e">resolver: dot-graph</text>
<g filter="url(#nshadow)">
<rect x="70.0" y="214.0" width="193.0" height="41.0" rx="14.0" fill="#f1ead8" stroke="#b89a63" stroke-width="1.5"/>
</g>
<text x="166.5" y="238.4" text-anchor="middle" font-family="'Inter','Helvetica Neue',Arial,sans-serif" font-size="14.0" font-weight="700" fill="#6f5a2e">resolver: orchestrator</text>
<g filter="url(#nshadow)">
<rect x="281.0" y="214.0" width="189.0" height="41.0" rx="14.0" fill="#f1ead8" stroke="#b89a63" stroke-width="1.5"/>
</g>
<text x="375.5" y="238.4" text-anchor="middle" font-family="'Inter','Helvetica Neue',Arial,sans-serif" font-size="14.0" font-weight="700" fill="#6f5a2e">resolver: understudy</text>
<g filter="url(#nshadow)">
<rect x="138.5" y="306.0" width="172.0" height="56.0" rx="14.0" fill="#eaf0e6" stroke="#7e9266" stroke-width="1.5"/>
</g>
<text x="224.5" y="329.7" text-anchor="middle" font-family="'Inter','Helvetica Neue',Arial,sans-serif" font-size="14.0" font-weight="700" fill="#566b3f">resolver viewports</text>
<text x="224.5" y="346.2" text-anchor="middle" font-family="'Inter','Helvetica Neue',Arial,sans-serif" font-size="11.5" font-weight="500" fill="#6b6359">(viewport.js)</text>
<g filter="url(#nshadow)">
<rect x="565.0" y="-0.0" width="213.0" height="56.0" rx="14.0" fill="#efe9dc" stroke="#a99c80" stroke-width="1.5"/>
</g>
<text x="671.5" y="23.7" text-anchor="middle" font-family="'Inter','Helvetica Neue',Arial,sans-serif" font-size="14.0" font-weight="700" fill="#7a6f55">amplifier-bundle-resolve</text>
<text x="671.5" y="40.2" text-anchor="middle" font-family="'Inter','Helvetica Neue',Arial,sans-serif" font-size="11.5" font-weight="500" fill="#6b6359">provisioning / DTU</text>
</svg>
