<?xml version="1.0" encoding="UTF-8" standalone="no"?>
<!DOCTYPE svg PUBLIC "-//W3C//DTD SVG 1.1//EN"
 "http://www.w3.org/Graphics/SVG/1.1/DTD/svg11.dtd">
<!-- Generated by graphviz version 2.42.4 (0)
 -->
<!-- Title: architecture_map Pages: 1 -->
<svg width="691pt" height="311pt"
 viewBox="0.00 0.00 691.00 311.00" xmlns="http://www.w3.org/2000/svg" xmlns:xlink="http://www.w3.org/1999/xlink">
<g id="graph0" class="graph" transform="scale(1 1) rotate(0) translate(4 307)">
<title>architecture_map</title>
<polygon fill="white" stroke="transparent" points="-4,4 -4,-307 687,-307 687,4 -4,4"/>
<!-- spa -->
<g id="node1" class="node">
<title>spa</title>
<polygon fill="none" stroke="black" points="113,-302 0,-302 0,-266 113,-266 113,-302"/>
<text text-anchor="middle" x="56.5" y="-280.3" font-family="Helvetica,sans-Serif" font-size="14.00">SPA (browser)</text>
</g>
<!-- platform -->
<g id="node5" class="node">
<title>platform</title>
<polygon fill="none" stroke="black" points="438,-214 247,-214 247,-176 438,-176 438,-214"/>
<text text-anchor="middle" x="342.5" y="-198.8" font-family="Helvetica,sans-Serif" font-size="14.00">amplifier&#45;resolve</text>
<text text-anchor="middle" x="342.5" y="-183.8" font-family="Helvetica,sans-Serif" font-size="14.00">FastAPI platform daemon</text>
</g>
<!-- spa&#45;&gt;platform -->
<g id="edge1" class="edge">
<title>spa&#45;&gt;platform</title>
<path fill="none" stroke="black" d="M62.36,-265.99C67.25,-254.48 75.39,-239.98 87.5,-232 111.94,-215.9 178.08,-206.85 236.87,-201.85"/>
<polygon fill="black" stroke="black" points="237.31,-205.33 246.99,-201.03 236.74,-198.35 237.31,-205.33"/>
<text text-anchor="middle" x="146" y="-235.8" font-family="Times,serif" font-size="14.00">POST /instances</text>
</g>
<!-- agent -->
<g id="node2" class="node">
<title>agent</title>
<polygon fill="none" stroke="black" points="267,-302 158,-302 158,-266 267,-266 267,-302"/>
<text text-anchor="middle" x="212.5" y="-280.3" font-family="Helvetica,sans-Serif" font-size="14.00">agent / script</text>
</g>
<!-- agent&#45;&gt;platform -->
<g id="edge2" class="edge">
<title>agent&#45;&gt;platform</title>
<path fill="none" stroke="black" d="M208.42,-265.64C206.94,-254.86 207.15,-241.32 214.5,-232 220.83,-223.98 228.79,-217.66 237.64,-212.68"/>
<polygon fill="black" stroke="black" points="239.36,-215.74 246.75,-208.15 236.24,-209.47 239.36,-215.74"/>
<text text-anchor="middle" x="273" y="-235.8" font-family="Times,serif" font-size="14.00">POST /instances</text>
</g>
<!-- cli -->
<g id="node3" class="node">
<title>cli</title>
<polygon fill="none" stroke="black" points="355.5,-302 301.5,-302 301.5,-266 355.5,-266 355.5,-302"/>
<text text-anchor="middle" x="328.5" y="-280.3" font-family="Helvetica,sans-Serif" font-size="14.00">CLI</text>
</g>
<!-- cli&#45;&gt;platform -->
<g id="edge3" class="edge">
<title>cli&#45;&gt;platform</title>
<path fill="none" stroke="black" d="M331.27,-265.81C333.18,-253.89 335.78,-237.76 337.99,-224"/>
<polygon fill="black" stroke="black" points="341.46,-224.48 339.6,-214.05 334.55,-223.37 341.46,-224.48"/>
</g>
<!-- bridge -->
<g id="node4" class="node">
<title>bridge</title>
<polygon fill="none" stroke="black" points="479.5,-303 373.5,-303 373.5,-265 479.5,-265 479.5,-303"/>
<text text-anchor="middle" x="426.5" y="-287.8" font-family="Helvetica,sans-Serif" font-size="14.00">CI bridge</text>
<text text-anchor="middle" x="426.5" y="-272.8" font-family="Helvetica,sans-Serif" font-size="14.00">(e.g. GitHub)</text>
</g>
<!-- bridge&#45;&gt;platform -->
<g id="edge4" class="edge">
<title>bridge&#45;&gt;platform</title>
<path fill="none" stroke="black" d="M409.1,-264.97C396.93,-252.38 380.52,-235.38 367.03,-221.41"/>
<polygon fill="black" stroke="black" points="369.35,-218.77 359.88,-214 364.31,-223.63 369.35,-218.77"/>
</g>
<!-- dotgraph -->
<g id="node6" class="node">
<title>dotgraph</title>
<polygon fill="none" stroke="black" points="585,-125 436,-125 436,-89 585,-89 585,-125"/>
<text text-anchor="middle" x="510.5" y="-103.3" font-family="Helvetica,sans-Serif" font-size="14.00">resolver: dot&#45;graph</text>
</g>
<!-- platform&#45;&gt;dotgraph -->
<g id="edge5" class="edge">
<title>platform&#45;&gt;dotgraph</title>
<path fill="none" stroke="black" d="M377.72,-175.97C404,-162.52 440.02,-144.08 467.92,-129.8"/>
<polygon fill="black" stroke="black" points="469.74,-132.8 477.04,-125.13 466.55,-126.57 469.74,-132.8"/>
<text text-anchor="middle" x="501.5" y="-146.8" font-family="Times,serif" font-size="14.00">launch container</text>
</g>
<!-- orchestrator -->
<g id="node7" class="node">
<title>orchestrator</title>
<polygon fill="none" stroke="black" points="239,-125 74,-125 74,-89 239,-89 239,-125"/>
<text text-anchor="middle" x="156.5" y="-103.3" font-family="Helvetica,sans-Serif" font-size="14.00">resolver: orchestrator</text>
</g>
<!-- platform&#45;&gt;orchestrator -->
<g id="edge6" class="edge">
<title>platform&#45;&gt;orchestrator</title>
<path fill="none" stroke="black" d="M303.51,-175.97C274.16,-162.4 233.83,-143.76 202.84,-129.42"/>
<polygon fill="black" stroke="black" points="204.09,-126.15 193.54,-125.13 201.15,-132.5 204.09,-126.15"/>
</g>
<!-- understudy -->
<g id="node8" class="node">
<title>understudy</title>
<polygon fill="none" stroke="black" points="418,-125 257,-125 257,-89 418,-89 418,-125"/>
<text text-anchor="middle" x="337.5" y="-103.3" font-family="Helvetica,sans-Serif" font-size="14.00">resolver: understudy</text>
</g>
<!-- platform&#45;&gt;understudy -->
<g id="edge7" class="edge">
<title>platform&#45;&gt;understudy</title>
<path fill="none" stroke="black" d="M341.44,-175.76C340.75,-163.93 339.84,-148.32 339.07,-135.05"/>
<polygon fill="black" stroke="black" points="342.57,-134.82 338.49,-125.04 335.58,-135.23 342.57,-134.82"/>
</g>
<!-- viewports -->
<g id="node9" class="node">
<title>viewports</title>
<polygon fill="none" stroke="black" points="279.5,-38 135.5,-38 135.5,0 279.5,0 279.5,-38"/>
<text text-anchor="middle" x="207.5" y="-22.8" font-family="Helvetica,sans-Serif" font-size="14.00">resolver viewports</text>
<text text-anchor="middle" x="207.5" y="-7.8" font-family="Helvetica,sans-Serif" font-size="14.00">(viewport.js)</text>
</g>
<!-- dotgraph&#45;&gt;viewports -->
<g id="edge8" class="edge">
<title>dotgraph&#45;&gt;viewports</title>
<path fill="none" stroke="black" d="M450.27,-88.91C401.55,-75.08 332.75,-55.55 280.83,-40.81"/>
<polygon fill="black" stroke="black" points="281.58,-37.39 271.01,-38.02 279.67,-44.12 281.58,-37.39"/>
<text text-anchor="middle" x="434" y="-59.8" font-family="Times,serif" font-size="14.00">events / state</text>
</g>
<!-- orchestrator&#45;&gt;viewports -->
<g id="edge9" class="edge">
<title>orchestrator&#45;&gt;viewports</title>
<path fill="none" stroke="black" d="M166.82,-88.6C173.87,-76.71 183.35,-60.73 191.38,-47.18"/>
<polygon fill="black" stroke="black" points="194.58,-48.65 196.67,-38.27 188.56,-45.08 194.58,-48.65"/>
</g>
<!-- understudy&#45;&gt;viewports -->
<g id="edge10" class="edge">
<title>understudy&#45;&gt;viewports</title>
<path fill="none" stroke="black" d="M311.51,-88.8C291.97,-75.88 264.97,-58.02 243.38,-43.73"/>
<polygon fill="black" stroke="black" points="245.07,-40.65 234.79,-38.06 241.2,-46.49 245.07,-40.65"/>
</g>
<!-- viewports&#45;&gt;spa -->
<g id="edge11" class="edge">
<title>viewports&#45;&gt;spa</title>
<path fill="none" stroke="black" d="M135.39,-37.72C108.59,-48.1 80.77,-64.23 64.5,-89 30.95,-140.08 40.91,-216.11 49.57,-256.13"/>
<polygon fill="black" stroke="black" points="46.18,-257 51.84,-265.96 53,-255.42 46.18,-257"/>
<text text-anchor="middle" x="79.5" y="-146.8" font-family="Times,serif" font-size="14.00">loaded by</text>
</g>
<!-- provisioning -->
<g id="node10" class="node">
<title>provisioning</title>
<polygon fill="none" stroke="black" points="683,-303 498,-303 498,-265 683,-265 683,-303"/>
<text text-anchor="middle" x="590.5" y="-287.8" font-family="Helvetica,sans-Serif" font-size="14.00">amplifier&#45;bundle&#45;resolve</text>
<text text-anchor="middle" x="590.5" y="-272.8" font-family="Helvetica,sans-Serif" font-size="14.00">provisioning / DTU</text>
</g>
<!-- provisioning&#45;&gt;platform -->
<g id="edge12" class="edge">
<title>provisioning&#45;&gt;platform</title>
<path fill="none" stroke="black" stroke-dasharray="5,2" d="M539.11,-264.97C499.63,-251.12 444.97,-231.95 403.31,-217.33"/>
<polygon fill="black" stroke="black" points="404.41,-214.01 393.82,-214 402.1,-220.62 404.41,-214.01"/>
<text text-anchor="middle" x="515.5" y="-235.8" font-family="Times,serif" font-size="14.00">stands up</text>
</g>
</g>
</svg>
