<?xml version="1.0" encoding="UTF-8" standalone="no"?>
<!DOCTYPE svg PUBLIC "-//W3C//DTD SVG 1.1//EN"
 "http://www.w3.org/Graphics/SVG/1.1/DTD/svg11.dtd">
<!-- Generated by graphviz version 2.42.4 (0)
 -->
<!-- Title: dtu_topology Pages: 1 -->
<svg width="460pt" height="222pt"
 viewBox="0.00 0.00 460.00 222.00" xmlns="http://www.w3.org/2000/svg" xmlns:xlink="http://www.w3.org/1999/xlink">
<g id="graph0" class="graph" transform="scale(1 1) rotate(0) translate(4 218)">
<title>dtu_topology</title>
<polygon fill="white" stroke="transparent" points="-4,4 -4,-218 456,-218 456,4 -4,4"/>
<!-- bridge -->
<g id="node1" class="node">
<title>bridge</title>
<polygon fill="none" stroke="black" points="294.5,-214 190.5,-214 190.5,-178 294.5,-178 294.5,-214"/>
<text text-anchor="middle" x="242.5" y="-192.3" font-family="Helvetica,sans-Serif" font-size="14.00">Incus bridge</text>
</g>
<!-- dtu -->
<g id="node2" class="node">
<title>dtu</title>
<polygon fill="none" stroke="black" points="138.5,-127 20.5,-127 20.5,-89 138.5,-89 138.5,-127"/>
<text text-anchor="middle" x="79.5" y="-111.8" font-family="Helvetica,sans-Serif" font-size="14.00">DTU</text>
<text text-anchor="middle" x="79.5" y="-96.8" font-family="Helvetica,sans-Serif" font-size="14.00">(resolve stack)</text>
</g>
<!-- bridge&#45;&gt;dtu -->
<g id="edge1" class="edge">
<title>bridge&#45;&gt;dtu</title>
<path fill="none" stroke="black" d="M197.92,-177.83C185.3,-172.53 171.69,-166.4 159.5,-160 144.19,-151.96 127.98,-141.94 114.18,-132.91"/>
<polygon fill="black" stroke="black" points="115.77,-129.76 105.5,-127.15 111.9,-135.6 115.77,-129.76"/>
<text text-anchor="middle" x="184" y="-148.8" font-family="Times,serif" font-size="14.00">sibling</text>
</g>
<!-- worker1 -->
<g id="node3" class="node">
<title>worker1</title>
<polygon fill="none" stroke="black" points="234,-126 157,-126 157,-90 234,-90 234,-126"/>
<text text-anchor="middle" x="195.5" y="-104.3" font-family="Helvetica,sans-Serif" font-size="14.00">worker&#45;1</text>
</g>
<!-- bridge&#45;&gt;worker1 -->
<g id="edge2" class="edge">
<title>bridge&#45;&gt;worker1</title>
<path fill="none" stroke="black" d="M230.54,-177.85C226.83,-172.27 222.84,-165.96 219.5,-160 215.15,-152.23 210.86,-143.54 207.13,-135.57"/>
<polygon fill="black" stroke="black" points="210.24,-133.95 202.91,-126.3 203.88,-136.85 210.24,-133.95"/>
<text text-anchor="middle" x="244" y="-148.8" font-family="Times,serif" font-size="14.00">sibling</text>
</g>
<!-- worker2 -->
<g id="node4" class="node">
<title>worker2</title>
<polygon fill="none" stroke="black" points="329,-126 252,-126 252,-90 329,-90 329,-126"/>
<text text-anchor="middle" x="290.5" y="-104.3" font-family="Helvetica,sans-Serif" font-size="14.00">worker&#45;2</text>
</g>
<!-- bridge&#45;&gt;worker2 -->
<g id="edge3" class="edge">
<title>bridge&#45;&gt;worker2</title>
<path fill="none" stroke="black" d="M256.56,-177.74C260.68,-172.25 265.02,-166.03 268.5,-160 272.95,-152.28 277.06,-143.49 280.49,-135.4"/>
<polygon fill="black" stroke="black" points="283.78,-136.59 284.31,-126.01 277.3,-133.95 283.78,-136.59"/>
<text text-anchor="middle" x="301" y="-148.8" font-family="Times,serif" font-size="14.00">sibling</text>
</g>
<!-- rcheck -->
<g id="node5" class="node">
<title>rcheck</title>
<polygon fill="none" stroke="black" points="452,-126 347,-126 347,-90 452,-90 452,-126"/>
<text text-anchor="middle" x="399.5" y="-104.3" font-family="Helvetica,sans-Serif" font-size="14.00">reality&#45;check</text>
</g>
<!-- bridge&#45;&gt;rcheck -->
<g id="edge4" class="edge">
<title>bridge&#45;&gt;rcheck</title>
<path fill="none" stroke="black" d="M290.89,-177.99C303.74,-172.82 317.4,-166.71 329.5,-160 343.82,-152.06 358.62,-141.65 370.9,-132.31"/>
<polygon fill="black" stroke="black" points="373.21,-134.95 378.97,-126.05 368.92,-129.42 373.21,-134.95"/>
<text text-anchor="middle" x="376" y="-148.8" font-family="Times,serif" font-size="14.00">sibling</text>
</g>
<!-- gitea -->
<g id="node6" class="node">
<title>gitea</title>
<polygon fill="none" stroke="black" points="159,-38 0,-38 0,0 159,0 159,-38"/>
<text text-anchor="middle" x="79.5" y="-22.8" font-family="Helvetica,sans-Serif" font-size="14.00">resolve&#45;{id}&#45;gitea</text>
<text text-anchor="middle" x="79.5" y="-7.8" font-family="Helvetica,sans-Serif" font-size="14.00">(Docker, inside DTU)</text>
</g>
<!-- dtu&#45;&gt;gitea -->
<g id="edge5" class="edge">
<title>dtu&#45;&gt;gitea</title>
<path fill="none" stroke="black" d="M79.5,-88.97C79.5,-77.19 79.5,-61.56 79.5,-48.16"/>
<polygon fill="black" stroke="black" points="83,-48 79.5,-38 76,-48 83,-48"/>
<text text-anchor="middle" x="131.5" y="-59.8" font-family="Times,serif" font-size="14.00">hosts (Docker)</text>
</g>
</g>
</svg>
