<?xml version="1.0" encoding="UTF-8" standalone="no"?>
<!DOCTYPE svg PUBLIC "-//W3C//DTD SVG 1.1//EN"
 "http://www.w3.org/Graphics/SVG/1.1/DTD/svg11.dtd">
<!-- Generated by graphviz version 2.42.4 (0)
 -->
<!-- Title: event_chain Pages: 1 -->
<svg width="731pt" height="44pt"
 viewBox="0.00 0.00 731.00 44.00" xmlns="http://www.w3.org/2000/svg" xmlns:xlink="http://www.w3.org/1999/xlink">
<g id="graph0" class="graph" transform="scale(1 1) rotate(0) translate(4 40)">
<title>event_chain</title>
<polygon fill="white" stroke="transparent" points="-4,4 -4,-40 727,-40 727,4 -4,4"/>
<!-- created -->
<g id="node1" class="node">
<title>created</title>
<polygon fill="none" stroke="black" points="128,-36 0,-36 0,0 128,0 128,-36"/>
<text text-anchor="middle" x="64" y="-14.3" font-family="Helvetica,sans-Serif" font-size="14.00">resolver:created</text>
</g>
<!-- phase -->
<g id="node2" class="node">
<title>phase</title>
<polygon fill="none" stroke="black" points="329,-36 211,-36 211,0 329,0 329,-36"/>
<text text-anchor="middle" x="270" y="-14.3" font-family="Helvetica,sans-Serif" font-size="14.00">resolver:phase</text>
</g>
<!-- created&#45;&gt;phase -->
<g id="edge1" class="edge">
<title>created&#45;&gt;phase</title>
<path fill="none" stroke="black" d="M128.15,-18C151.08,-18 177.1,-18 200.48,-18"/>
<polygon fill="black" stroke="black" points="200.66,-21.5 210.66,-18 200.66,-14.5 200.66,-21.5"/>
<text text-anchor="middle" x="169.5" y="-21.8" font-family="Times,serif" font-size="14.00">repeat</text>
</g>
<!-- artifact -->
<g id="node3" class="node">
<title>artifact</title>
<polygon fill="none" stroke="black" points="537,-36 412,-36 412,0 537,0 537,-36"/>
<text text-anchor="middle" x="474.5" y="-14.3" font-family="Helvetica,sans-Serif" font-size="14.00">resolver:artifact</text>
</g>
<!-- phase&#45;&gt;artifact -->
<g id="edge2" class="edge">
<title>phase&#45;&gt;artifact</title>
<path fill="none" stroke="black" d="M329.03,-18C351.73,-18 378,-18 401.87,-18"/>
<polygon fill="black" stroke="black" points="401.93,-21.5 411.93,-18 401.93,-14.5 401.93,-21.5"/>
<text text-anchor="middle" x="370.5" y="-21.8" font-family="Times,serif" font-size="14.00">repeat</text>
</g>
<!-- completed -->
<g id="node4" class="node">
<title>completed</title>
<polygon fill="none" stroke="black" points="723,-36 574,-36 574,0 723,0 723,-36"/>
<text text-anchor="middle" x="648.5" y="-14.3" font-family="Helvetica,sans-Serif" font-size="14.00">resolver:completed</text>
</g>
<!-- artifact&#45;&gt;completed -->
<g id="edge3" class="edge">
<title>artifact&#45;&gt;completed</title>
<path fill="none" stroke="black" d="M537.11,-18C545.79,-18 554.84,-18 563.85,-18"/>
<polygon fill="black" stroke="black" points="563.99,-21.5 573.99,-18 563.99,-14.5 563.99,-21.5"/>
</g>
</g>
</svg>
