<svg xmlns="http://www.w3.org/2000/svg" class="rdiagram" width="855" height="61" viewBox="-10 -10 855 61" preserveAspectRatio="xMidYMid meet" role="img">
<defs><filter id="nshadow" x="-20%" y="-20%" width="140%" height="150%"><feDropShadow dx="0" dy="1.6" stdDeviation="2.6" flood-color="#2a2622" flood-opacity="0.16"/></filter><marker id="arrow" viewBox="0 0 10 10" refX="8.5" refY="5" markerWidth="7.5" markerHeight="7.5" orient="auto-start-reverse"><path d="M0,0.6 L9,5 L0,9.4 L2.4,5 Z" fill="#6b6359"/></marker></defs>
<path d="M 156.2 20.5 C 179.4 20.5 205.0 20.5 228.5 20.5" fill="none" stroke="#6b6359" stroke-width="1.6" stroke-linecap="round" marker-end="url(#arrow)" opacity="0.85"/>
<rect x="176.0" y="7.7" width="43.0" height="16" rx="8" fill="#f7f3e9" stroke="#d9cfb8" stroke-width="1"/>
<text x="197.5" y="20.2" text-anchor="middle" font-family="'Inter','Helvetica Neue',Arial,sans-serif" font-size="10.5" fill="#6b6359">repeat</text>
<path d="M 385.3 20.5 C 408.3 20.5 433.9 20.5 457.8 20.5" fill="none" stroke="#6b6359" stroke-width="1.6" stroke-linecap="round" marker-end="url(#arrow)" opacity="0.85"/>
<rect x="405.0" y="7.7" width="43.0" height="16" rx="8" fill="#f7f3e9" stroke="#d9cfb8" stroke-width="1"/>
<text x="426.5" y="20.2" text-anchor="middle" font-family="'Inter','Helvetica Neue',Arial,sans-serif" font-size="10.5" fill="#6b6359">repeat</text>
<path d="M 621.1 20.5 C 629.8 20.5 638.7 20.5 647.6 20.5" fill="none" stroke="#6b6359" stroke-width="1.6" stroke-linecap="round" marker-end="url(#arrow)" opacity="0.85"/>
<g filter="url(#nshadow)">
<rect x="-0.0" y="0.0" width="156.0" height="41.0" rx="14.0" fill="#eef2f4" stroke="#7fa0b0" stroke-width="1.5"/>
</g>
<text x="78.0" y="24.4" text-anchor="middle" font-family="'Inter','Helvetica Neue',Arial,sans-serif" font-size="14.0" font-weight="700" fill="#3f6075">resolver:created</text>
<g filter="url(#nshadow)">
<rect x="239.0" y="0.0" width="146.0" height="41.0" rx="14.0" fill="#f6e7d0" stroke="#b07a3f" stroke-width="1.5"/>
</g>
<text x="312.0" y="24.4" text-anchor="middle" font-family="'Inter','Helvetica Neue',Arial,sans-serif" font-size="14.0" font-weight="700" fill="#8a5a2b">resolver:phase</text>
<g filter="url(#nshadow)">
<rect x="468.0" y="0.0" width="153.0" height="41.0" rx="14.0" fill="#f1ead8" stroke="#b89a63" stroke-width="1.5"/>
</g>
<text x="544.5" y="24.4" text-anchor="middle" font-family="'Inter','Helvetica Neue',Arial,sans-serif" font-size="14.0" font-weight="700" fill="#6f5a2e">resolver:artifact</text>
<g filter="url(#nshadow)">
<rect x="658.0" y="0.0" width="177.0" height="41.0" rx="14.0" fill="#e7efe2" stroke="#7fa06a" stroke-width="1.5"/>
</g>
<text x="746.5" y="24.4" text-anchor="middle" font-family="'Inter','Helvetica Neue',Arial,sans-serif" font-size="14.0" font-weight="700" fill="#4f6f3c">resolver:completed</text>
</svg>
