<?xml version="1.0" encoding="UTF-8" standalone="no"?>
<!DOCTYPE svg PUBLIC "-//W3C//DTD SVG 1.1//EN"
 "http://www.w3.org/Graphics/SVG/1.1/DTD/svg11.dtd">
<!-- Generated by graphviz version 2.42.4 (0)
 -->
<!-- Title: instance_status Pages: 1 -->
<svg width="546pt" height="289pt"
 viewBox="0.00 0.00 546.00 289.00" xmlns="http://www.w3.org/2000/svg" xmlns:xlink="http://www.w3.org/1999/xlink">
<g id="graph0" class="graph" transform="scale(1 1) rotate(0) translate(4 285)">
<title>instance_status</title>
<polygon fill="white" stroke="transparent" points="-4,4 -4,-285 542,-285 542,4 -4,4"/>
<!-- created -->
<g id="node1" class="node">
<title>created</title>
<polygon fill="none" stroke="black" points="68,-172 0,-172 0,-136 68,-136 68,-172"/>
<text text-anchor="middle" x="34" y="-150.3" font-family="Helvetica,sans-Serif" font-size="14.00">created</text>
</g>
<!-- starting -->
<g id="node2" class="node">
<title>starting</title>
<polygon fill="none" stroke="black" points="176,-172 105,-172 105,-136 176,-136 176,-172"/>
<text text-anchor="middle" x="140.5" y="-150.3" font-family="Helvetica,sans-Serif" font-size="14.00">starting</text>
</g>
<!-- created&#45;&gt;starting -->
<g id="edge1" class="edge">
<title>created&#45;&gt;starting</title>
<path fill="none" stroke="black" d="M68.06,-154C76.49,-154 85.68,-154 94.59,-154"/>
<polygon fill="black" stroke="black" points="94.85,-157.5 104.85,-154 94.85,-150.5 94.85,-157.5"/>
</g>
<!-- running -->
<g id="node3" class="node">
<title>running</title>
<polygon fill="none" stroke="black" points="284,-172 213,-172 213,-136 284,-136 284,-172"/>
<text text-anchor="middle" x="248.5" y="-150.3" font-family="Helvetica,sans-Serif" font-size="14.00">running</text>
</g>
<!-- starting&#45;&gt;running -->
<g id="edge2" class="edge">
<title>starting&#45;&gt;running</title>
<path fill="none" stroke="black" d="M176.21,-154C184.63,-154 193.75,-154 202.56,-154"/>
<polygon fill="black" stroke="black" points="202.71,-157.5 212.71,-154 202.71,-150.5 202.71,-157.5"/>
</g>
<!-- awaiting -->
<g id="node4" class="node">
<title>awaiting</title>
<polygon fill="none" stroke="black" points="538,-271 420,-271 420,-235 538,-235 538,-271"/>
<text text-anchor="middle" x="479" y="-249.3" font-family="Helvetica,sans-Serif" font-size="14.00">awaiting_input</text>
</g>
<!-- running&#45;&gt;awaiting -->
<g id="edge6" class="edge">
<title>running&#45;&gt;awaiting</title>
<path fill="none" stroke="black" d="M254.13,-172.29C260.73,-194.11 275.13,-229.67 302,-246 333.75,-265.29 375.01,-267.85 409.6,-265.21"/>
<polygon fill="black" stroke="black" points="410,-268.69 419.63,-264.29 409.36,-261.72 410,-268.69"/>
<text text-anchor="middle" x="352" y="-269.8" font-family="Times,serif" font-size="14.00">request_input</text>
</g>
<!-- paused -->
<g id="node5" class="node">
<title>paused</title>
<polygon fill="none" stroke="black" points="513,-202 445,-202 445,-166 513,-166 513,-202"/>
<text text-anchor="middle" x="479" y="-180.3" font-family="Helvetica,sans-Serif" font-size="14.00">paused</text>
</g>
<!-- running&#45;&gt;paused -->
<g id="edge8" class="edge">
<title>running&#45;&gt;paused</title>
<path fill="none" stroke="black" d="M284.25,-165.74C290.12,-167.39 296.2,-168.9 302,-170 346.81,-178.51 399,-181.85 434.84,-183.17"/>
<polygon fill="black" stroke="black" points="434.85,-186.67 444.96,-183.5 435.08,-179.67 434.85,-186.67"/>
<text text-anchor="middle" x="352" y="-184.8" font-family="Times,serif" font-size="14.00">suspend</text>
</g>
<!-- completed -->
<g id="node6" class="node">
<title>completed</title>
<polygon fill="none" stroke="black" points="523.5,-144 434.5,-144 434.5,-108 523.5,-108 523.5,-144"/>
<text text-anchor="middle" x="479" y="-122.3" font-family="Helvetica,sans-Serif" font-size="14.00">completed</text>
</g>
<!-- running&#45;&gt;completed -->
<g id="edge3" class="edge">
<title>running&#45;&gt;completed</title>
<path fill="none" stroke="black" d="M284.1,-139.85C289.99,-137.92 296.11,-136.19 302,-135 342.4,-126.85 389.01,-124.78 424.11,-124.66"/>
<polygon fill="black" stroke="black" points="424.15,-128.15 434.16,-124.67 424.16,-121.15 424.15,-128.15"/>
</g>
<!-- failed -->
<g id="node7" class="node">
<title>failed</title>
<polygon fill="none" stroke="black" points="506.5,-90 451.5,-90 451.5,-54 506.5,-54 506.5,-90"/>
<text text-anchor="middle" x="479" y="-68.3" font-family="Helvetica,sans-Serif" font-size="14.00">failed</text>
</g>
<!-- running&#45;&gt;failed -->
<g id="edge4" class="edge">
<title>running&#45;&gt;failed</title>
<path fill="none" stroke="black" d="M274.84,-136C283.21,-130.63 292.74,-125.09 302,-121 348.07,-100.63 404.72,-86.67 441.09,-79.01"/>
<polygon fill="black" stroke="black" points="442.14,-82.37 451.23,-76.93 440.74,-75.51 442.14,-82.37"/>
</g>
<!-- cancelled -->
<g id="node8" class="node">
<title>cancelled</title>
<polygon fill="none" stroke="black" points="520,-36 438,-36 438,0 520,0 520,-36"/>
<text text-anchor="middle" x="479" y="-14.3" font-family="Helvetica,sans-Serif" font-size="14.00">cancelled</text>
</g>
<!-- running&#45;&gt;cancelled -->
<g id="edge5" class="edge">
<title>running&#45;&gt;cancelled</title>
<path fill="none" stroke="black" d="M259.12,-135.89C268.28,-120.22 283.4,-97.94 302,-84 339.48,-55.92 390.25,-38.58 427.62,-28.77"/>
<polygon fill="black" stroke="black" points="428.95,-32.04 437.79,-26.19 427.24,-25.25 428.95,-32.04"/>
</g>
<!-- awaiting&#45;&gt;running -->
<g id="edge7" class="edge">
<title>awaiting&#45;&gt;running</title>
<path fill="none" stroke="black" d="M426.64,-234.92C418.43,-232.17 410,-229.45 402,-227 357.98,-213.54 342.58,-221.73 302,-200 291.96,-194.62 282.22,-187 273.91,-179.5"/>
<polygon fill="black" stroke="black" points="276.09,-176.74 266.41,-172.42 271.28,-181.83 276.09,-176.74"/>
<text text-anchor="middle" x="352" y="-230.8" font-family="Times,serif" font-size="14.00">response</text>
</g>
<!-- paused&#45;&gt;running -->
<g id="edge9" class="edge">
<title>paused&#45;&gt;running</title>
<path fill="none" stroke="black" d="M444.93,-166.13C431.94,-160.06 416.65,-154.04 402,-151 366.24,-143.57 324.75,-145.02 294.09,-147.93"/>
<polygon fill="black" stroke="black" points="293.71,-144.45 284.13,-148.97 294.43,-151.41 293.71,-144.45"/>
<text text-anchor="middle" x="352" y="-154.8" font-family="Times,serif" font-size="14.00">resume</text>
</g>
</g>
</svg>
