<svg xmlns="http://www.w3.org/2000/svg" class="rdiagram" width="449" height="446" viewBox="-10 -10 449 446" preserveAspectRatio="xMidYMid meet" role="img">
<defs><filter id="nshadow" x="-20%" y="-20%" width="140%" height="150%"><feDropShadow dx="0" dy="1.6" stdDeviation="2.6" flood-color="#2a2622" flood-opacity="0.16"/></filter><marker id="arrow" viewBox="0 0 10 10" refX="8.5" refY="5" markerWidth="7.5" markerHeight="7.5" orient="auto-start-reverse"><path d="M0,0.6 L9,5 L0,9.4 L2.4,5 Z" fill="#6b6359"/></marker></defs>
<path d="M 214.5 41.2 C 214.5 52.2 214.5 65.9 214.5 76.9" fill="none" stroke="#6b6359" stroke-width="1.6" stroke-linecap="round" opacity="0.85"/>
<path d="M 214.5 118.2 C 214.5 129.2 214.5 142.9 214.5 153.9" fill="none" stroke="#6b6359" stroke-width="1.6" stroke-linecap="round" opacity="0.85"/>
<path d="M 214.5 195.2 C 214.5 206.2 214.5 219.9 214.5 230.9" fill="none" stroke="#6b6359" stroke-width="1.6" stroke-linecap="round" opacity="0.85"/>
<path d="M 214.5 272.2 C 214.5 283.2 214.5 296.9 214.5 307.9" fill="none" stroke="#6b6359" stroke-width="1.6" stroke-linecap="round" opacity="0.85"/>
<path d="M 214.5 349.2 C 214.5 360.2 214.5 373.9 214.5 384.9" fill="none" stroke="#6b6359" stroke-width="1.6" stroke-linecap="round" opacity="0.85"/>
<g filter="url(#nshadow)">
<rect x="6.0" y="0.0" width="417.0" height="41.0" rx="14.0" fill="#eaf1f4" stroke="#3f7d99" stroke-width="1.5"/>
</g>
<text x="214.5" y="24.4" text-anchor="middle" font-family="'Inter','Helvetica Neue',Arial,sans-serif" font-size="14.0" font-weight="700" fill="#1f5673">6  EDGE — consumers: SPA / agents / CLI / CI bridges</text>
<g filter="url(#nshadow)">
<rect x="23.0" y="77.0" width="383.0" height="41.0" rx="14.0" fill="#eaf0e6" stroke="#7e9266" stroke-width="1.5"/>
</g>
<text x="214.5" y="101.4" text-anchor="middle" font-family="'Inter','Helvetica Neue',Arial,sans-serif" font-size="14.0" font-weight="700" fill="#566b3f">5  CONSUMER — SPA shell + dynamic viewports</text>
<g filter="url(#nshadow)">
<rect x="0.0" y="154.0" width="429.0" height="41.0" rx="14.0" fill="#f1ead8" stroke="#b89a63" stroke-width="1.5"/>
</g>
<text x="214.5" y="178.4" text-anchor="middle" font-family="'Inter','Helvetica Neue',Arial,sans-serif" font-size="14.0" font-weight="700" fill="#6f5a2e">4  RESOLVERS — dot-graph / orchestrator / understudy</text>
<g filter="url(#nshadow)">
<rect x="17.0" y="231.0" width="395.0" height="41.0" rx="14.0" fill="#f1ead8" stroke="#b89a63" stroke-width="1.5"/>
</g>
<text x="214.5" y="255.4" text-anchor="middle" font-family="'Inter','Helvetica Neue',Arial,sans-serif" font-size="14.0" font-weight="700" fill="#6f5a2e">3  SDK — SessionFactory / EventEmitter / dispatch</text>
<g filter="url(#nshadow)">
<rect x="35.0" y="308.0" width="359.0" height="41.0" rx="14.0" fill="#f6e7d0" stroke="#b07a3f" stroke-width="1.5"/>
</g>
<text x="214.5" y="332.4" text-anchor="middle" font-family="'Inter','Helvetica Neue',Arial,sans-serif" font-size="14.0" font-weight="700" fill="#8a5a2b">2  PLATFORM — FastAPI daemon (still center)</text>
<g filter="url(#nshadow)">
<rect x="35.0" y="385.0" width="359.0" height="41.0" rx="14.0" fill="#e9e7e0" stroke="#9b9484" stroke-width="1.5"/>
</g>
<text x="214.5" y="409.4" text-anchor="middle" font-family="'Inter','Helvetica Neue',Arial,sans-serif" font-size="14.0" font-weight="700" fill="#5d564a">1  RUNTIME — Incus / Docker + .resolve/ bus</text>
</svg>
