<?xml version="1.0" encoding="UTF-8" standalone="no"?>
<!DOCTYPE svg PUBLIC "-//W3C//DTD SVG 1.1//EN"
 "http://www.w3.org/Graphics/SVG/1.1/DTD/svg11.dtd">
<!-- Generated by graphviz version 2.42.4 (0)
 -->
<!-- Title: six_layer_stack Pages: 1 -->
<svg width="409pt" height="404pt"
 viewBox="0.00 0.00 409.00 404.00" xmlns="http://www.w3.org/2000/svg" xmlns:xlink="http://www.w3.org/1999/xlink">
<g id="graph0" class="graph" transform="scale(1 1) rotate(0) translate(4 400)">
<title>six_layer_stack</title>
<polygon fill="white" stroke="transparent" points="-4,4 -4,-400 405,-400 405,4 -4,4"/>
<!-- l6 -->
<g id="node1" class="node">
<title>l6</title>
<polygon fill="none" stroke="black" points="395,-396 6,-396 6,-360 395,-360 395,-396"/>
<text text-anchor="middle" x="200.5" y="-374.3" font-family="Helvetica,sans-Serif" font-size="14.00">6 &#160;EDGE — consumers: SPA / agents / CLI / CI bridges</text>
</g>
<!-- l5 -->
<g id="node2" class="node">
<title>l5</title>
<polygon fill="none" stroke="black" points="378,-324 23,-324 23,-288 378,-288 378,-324"/>
<text text-anchor="middle" x="200.5" y="-302.3" font-family="Helvetica,sans-Serif" font-size="14.00">5 &#160;CONSUMER — SPA shell + dynamic viewports</text>
</g>
<!-- l6&#45;&gt;l5 -->
<g id="edge1" class="edge">
<title>l6&#45;&gt;l5</title>
<path fill="none" stroke="black" d="M200.5,-359.7C200.5,-348.85 200.5,-334.92 200.5,-324.1"/>
</g>
<!-- l4 -->
<g id="node3" class="node">
<title>l4</title>
<polygon fill="none" stroke="black" points="401,-252 0,-252 0,-216 401,-216 401,-252"/>
<text text-anchor="middle" x="200.5" y="-230.3" font-family="Helvetica,sans-Serif" font-size="14.00">4 &#160;RESOLVERS — dot&#45;graph / orchestrator / understudy</text>
</g>
<!-- l5&#45;&gt;l4 -->
<g id="edge2" class="edge">
<title>l5&#45;&gt;l4</title>
<path fill="none" stroke="black" d="M200.5,-287.7C200.5,-276.85 200.5,-262.92 200.5,-252.1"/>
</g>
<!-- l3 -->
<g id="node4" class="node">
<title>l3</title>
<polygon fill="none" stroke="black" points="384,-180 17,-180 17,-144 384,-144 384,-180"/>
<text text-anchor="middle" x="200.5" y="-158.3" font-family="Helvetica,sans-Serif" font-size="14.00">3 &#160;SDK — SessionFactory / EventEmitter / dispatch</text>
</g>
<!-- l4&#45;&gt;l3 -->
<g id="edge3" class="edge">
<title>l4&#45;&gt;l3</title>
<path fill="none" stroke="black" d="M200.5,-215.7C200.5,-204.85 200.5,-190.92 200.5,-180.1"/>
</g>
<!-- l2 -->
<g id="node5" class="node">
<title>l2</title>
<polygon fill="none" stroke="black" points="366,-108 35,-108 35,-72 366,-72 366,-108"/>
<text text-anchor="middle" x="200.5" y="-86.3" font-family="Helvetica,sans-Serif" font-size="14.00">2 &#160;PLATFORM — FastAPI daemon (still center)</text>
</g>
<!-- l3&#45;&gt;l2 -->
<g id="edge4" class="edge">
<title>l3&#45;&gt;l2</title>
<path fill="none" stroke="black" d="M200.5,-143.7C200.5,-132.85 200.5,-118.92 200.5,-108.1"/>
</g>
<!-- l1 -->
<g id="node6" class="node">
<title>l1</title>
<polygon fill="none" stroke="black" points="366,-36 35,-36 35,0 366,0 366,-36"/>
<text text-anchor="middle" x="200.5" y="-14.3" font-family="Helvetica,sans-Serif" font-size="14.00">1 &#160;RUNTIME — Incus / Docker + .resolve/ bus</text>
</g>
<!-- l2&#45;&gt;l1 -->
<g id="edge5" class="edge">
<title>l2&#45;&gt;l1</title>
<path fill="none" stroke="black" d="M200.5,-71.7C200.5,-60.85 200.5,-46.92 200.5,-36.1"/>
</g>
</g>
</svg>
