<svg xmlns="http://www.w3.org/2000/svg" class="rdiagram" width="209" height="601" viewBox="-10 -10 209 601" preserveAspectRatio="xMidYMid meet" role="img">
<defs><filter id="nshadow" x="-20%" y="-20%" width="140%" height="150%"><feDropShadow dx="0" dy="1.6" stdDeviation="2.6" flood-color="#2a2622" flood-opacity="0.16"/></filter><marker id="arrow" viewBox="0 0 10 10" refX="8.5" refY="5" markerWidth="7.5" markerHeight="7.5" orient="auto-start-reverse"><path d="M0,0.6 L9,5 L0,9.4 L2.4,5 Z" fill="#6b6359"/></marker></defs>
<path d="M 94.5 41.0 C 94.5 52.9 94.5 68.2 94.5 81.5" fill="none" stroke="#6b6359" stroke-width="1.6" stroke-linecap="round" marker-end="url(#arrow)" opacity="0.85"/>
<rect x="95.5" y="61.2" width="55.0" height="16" rx="8" fill="#f7f3e9" stroke="#d9cfb8" stroke-width="1"/>
<text x="123.0" y="73.7" text-anchor="middle" font-family="'Inter','Helvetica Neue',Arial,sans-serif" font-size="10.5" fill="#6b6359">1 triage</text>
<path d="M 94.5 133.3 C 94.5 141.2 94.5 150.6 94.5 159.7" fill="none" stroke="#6b6359" stroke-width="1.6" stroke-linecap="round" marker-end="url(#arrow)" opacity="0.85"/>
<path d="M 94.5 226.0 C 94.5 238.3 94.5 253.0 94.5 266.4" fill="none" stroke="#6b6359" stroke-width="1.6" stroke-linecap="round" marker-end="url(#arrow)" opacity="0.85"/>
<rect x="103.5" y="246.2" width="73.0" height="16" rx="8" fill="#f7f3e9" stroke="#d9cfb8" stroke-width="1"/>
<text x="140.0" y="258.7" text-anchor="middle" font-family="'Inter','Helvetica Neue',Arial,sans-serif" font-size="10.5" fill="#6b6359">2 implement</text>
<path d="M 94.5 333.3 C 94.5 341.8 94.5 351.1 94.5 359.8" fill="none" stroke="#6b6359" stroke-width="1.6" stroke-linecap="round" marker-end="url(#arrow)" opacity="0.85"/>
<path d="M 94.5 411.0 C 94.5 422.9 94.5 438.2 94.5 451.5" fill="none" stroke="#6b6359" stroke-width="1.6" stroke-linecap="round" marker-end="url(#arrow)" opacity="0.85"/>
<rect x="98.0" y="431.2" width="55.0" height="16" rx="8" fill="#f7f3e9" stroke="#d9cfb8" stroke-width="1"/>
<text x="125.5" y="443.7" text-anchor="middle" font-family="'Inter','Helvetica Neue',Arial,sans-serif" font-size="10.5" fill="#6b6359">3 review</text>
<path d="M 94.5 503.1 C 94.5 511.2 94.5 520.9 94.5 529.9" fill="none" stroke="#6b6359" stroke-width="1.6" stroke-linecap="round" marker-end="url(#arrow)" opacity="0.85"/>
<g filter="url(#nshadow)">
<rect x="26.0" y="0.0" width="137.0" height="41.0" rx="14.0" fill="#eaf1f4" stroke="#3f7d99" stroke-width="1.5"/>
</g>
<text x="94.5" y="24.4" text-anchor="middle" font-family="'Inter','Helvetica Neue',Arial,sans-serif" font-size="14.0" font-weight="700" fill="#1f5673">issue.opened</text>
<g filter="url(#nshadow)">
<rect x="22.5" y="92.0" width="144.0" height="41.0" rx="14.0" fill="#f1ead8" stroke="#b89a63" stroke-width="1.5"/>
</g>
<text x="94.5" y="116.4" text-anchor="middle" font-family="'Inter','Helvetica Neue',Arial,sans-serif" font-size="14.0" font-weight="700" fill="#6f5a2e">triage pipeline</text>
<g filter="url(#nshadow)">
<rect x="13.5" y="170.0" width="162.0" height="56.0" rx="14.0" fill="#f6e7d0" stroke="#b07a3f" stroke-width="1.5"/>
</g>
<text x="94.5" y="193.7" text-anchor="middle" font-family="'Inter','Helvetica Neue',Arial,sans-serif" font-size="14.0" font-weight="700" fill="#8a5a2b">/resolve</text>
<text x="94.5" y="210.2" text-anchor="middle" font-family="'Inter','Helvetica Neue',Arial,sans-serif" font-size="11.5" font-weight="500" fill="#6b6359">new_instance(...)</text>
<g filter="url(#nshadow)">
<rect x="9.5" y="277.0" width="170.0" height="56.0" rx="14.0" fill="#f6e7d0" stroke="#b07a3f" stroke-width="1.5"/>
</g>
<text x="94.5" y="300.7" text-anchor="middle" font-family="'Inter','Helvetica Neue',Arial,sans-serif" font-size="14.0" font-weight="700" fill="#8a5a2b">Resolve API</text>
<text x="94.5" y="317.2" text-anchor="middle" font-family="'Inter','Helvetica Neue',Arial,sans-serif" font-size="11.5" font-weight="500" fill="#6b6359">resolver container</text>
<g filter="url(#nshadow)">
<rect x="35.0" y="370.0" width="119.0" height="41.0" rx="14.0" fill="#e7efe2" stroke="#7fa06a" stroke-width="1.5"/>
</g>
<text x="94.5" y="394.4" text-anchor="middle" font-family="'Inter','Helvetica Neue',Arial,sans-serif" font-size="14.0" font-weight="700" fill="#4f6f3c">PR created</text>
<g filter="url(#nshadow)">
<rect x="20.0" y="462.0" width="149.0" height="41.0" rx="14.0" fill="#f1ead8" stroke="#b89a63" stroke-width="1.5"/>
</g>
<text x="94.5" y="486.4" text-anchor="middle" font-family="'Inter','Helvetica Neue',Arial,sans-serif" font-size="14.0" font-weight="700" fill="#6f5a2e">review pipeline</text>
<g filter="url(#nshadow)">
<rect x="0.0" y="540.0" width="189.0" height="41.0" rx="14.0" fill="#eaf1f4" stroke="#3f7d99" stroke-width="1.5"/>
</g>
<text x="94.5" y="564.4" text-anchor="middle" font-family="'Inter','Helvetica Neue',Arial,sans-serif" font-size="14.0" font-weight="700" fill="#1f5673">PR review comments</text>
</svg>
